<?xml version="1.0" encoding="utf-8"?>
<!-- Generator: Adobe Illustrator 26.0.3, SVG Export Plug-In . SVG Version: 6.00 Build 0)  -->
<svg version="1.1"
	 id="svg8" xmlns:cc="http://creativecommons.org/ns#" xmlns:dc="http://purl.org/dc/elements/1.1/" xmlns:inkscape="http://www.inkscape.org/namespaces/inkscape" xmlns:rdf="http://www.w3.org/1999/02/22-rdf-syntax-ns#" xmlns:sodipodi="http://sodipodi.sourceforge.net/DTD/sodipodi-0.dtd" xmlns:svg="http://www.w3.org/2000/svg"
	 xmlns="http://www.w3.org/2000/svg" xmlns:xlink="http://www.w3.org/1999/xlink" x="0px" y="0px" viewBox="0 0 1357.4 1356.3"
	 style="enable-background:new 0 0 1357.4 1356.3;" xml:space="preserve">
<style type="text/css">
	.st0{fill:none;stroke:#C0C0C0;stroke-width:50;stroke-linecap:round;stroke-linejoin:round;stroke-miterlimit:15.1181;}
	.st1{fill:none;stroke:#6A4570;stroke-width:3;stroke-miterlimit:15.1181;}
	.st2{fill:none;stroke:#EF3F6F;stroke-width:3;stroke-linecap:round;stroke-linejoin:round;stroke-miterlimit:15.1181;}
	.st3{fill:none;stroke:#EA7429;stroke-width:3;stroke-linecap:round;stroke-linejoin:round;stroke-miterlimit:15.1181;}
	.st4{fill:none;stroke:#A9B929;stroke-width:3;stroke-linecap:round;stroke-linejoin:round;stroke-miterlimit:15.1181;}
	.st5{fill:none;stroke:#80C029;stroke-width:3;stroke-linecap:round;stroke-linejoin:round;stroke-miterlimit:15.1181;}
	.st6{fill:none;stroke:#29C49A;stroke-width:3;stroke-linecap:round;stroke-linejoin:round;stroke-miterlimit:15.1181;}
	.st7{fill:none;stroke:#004B64;stroke-width:3;stroke-linecap:round;stroke-linejoin:round;stroke-miterlimit:15.1181;}
	.st8{fill:none;stroke:#6F45E0;stroke-width:3;stroke-linecap:round;stroke-linejoin:round;stroke-miterlimit:15.1181;}
	.st9{fill:none;stroke:#6A0064;stroke-width:3;stroke-linecap:round;stroke-linejoin:round;stroke-miterlimit:15.1181;}
	.st10{fill:none;stroke:#803F64;stroke-width:3;stroke-miterlimit:15.1181;}
	.st11{fill:none;stroke:#EF7499;stroke-width:3;stroke-miterlimit:15.1181;}
	.st12{fill:none;stroke:#948029;stroke-width:3;stroke-miterlimit:15.1181;}
	.st13{fill:none;stroke:#6F4B6F;stroke-width:3;stroke-miterlimit:15.1181;}
	.st14{fill:none;stroke:#29808E;stroke-width:3;stroke-miterlimit:15.1181;}
	.st15{fill:none;stroke:#80B99A;stroke-width:3;stroke-miterlimit:15.1181;}
	.st16{fill:none;stroke:#808A00;stroke-width:3;stroke-miterlimit:15.1181;}
	.st17{fill:#FFE953;stroke:#000000;stroke-width:3;stroke-linecap:round;stroke-linejoin:round;stroke-miterlimit:15.1181;}
	.st18{fill:#FF7E00;stroke:#000000;stroke-width:3;stroke-linecap:round;stroke-linejoin:round;stroke-miterlimit:15.1181;}
	.st19{fill:#D50000;stroke:#000000;stroke-width:3;stroke-linecap:round;stroke-linejoin:round;stroke-miterlimit:15.1181;}
	.st20{fill:#DF00DF;stroke:#000000;stroke-width:3;stroke-linecap:round;stroke-linejoin:round;stroke-miterlimit:15.1181;}
	.st21{fill:#0000C9;stroke:#000000;stroke-width:3;stroke-linecap:round;stroke-linejoin:round;stroke-miterlimit:15.1181;}
	.st22{fill:#008AE1;stroke:#000000;stroke-width:3;stroke-linecap:round;stroke-linejoin:round;stroke-miterlimit:15.1181;}
	.st23{fill:#009700;stroke:#000000;stroke-width:3;stroke-linecap:round;stroke-linejoin:round;stroke-miterlimit:15.1181;}
	.st24{fill:#53FF53;stroke:#000000;stroke-width:3;stroke-linecap:round;stroke-linejoin:round;stroke-miterlimit:15.1181;}
	.st25{font-family:'Ebrima-Bold';}
	.st26{font-size:22px;}
	.st27{fill:#FFFFFF;}
	.st28{fill:#549673;}
	.st29{fill:#948029;}
	.st30{fill:#6F4B6F;}
	.st31{fill:#808A00;}
	.st32{fill:#9C6AA4;}
	.st33{fill:#EF7499;}
	.st34{fill:#29808E;}
	.st35{fill:#803F64;}
	.st36{fill:#7F8B1F;}
	.st37{fill:#6F45E0;}
	.st38{fill:#61911F;}
	.st39{fill:#6A0064;}
	.st40{fill:#EA7429;}
	.st41{fill:#004B64;}
	.st42{fill:#1F9374;}
	.st43{fill:#EF3F6F;}
</style>
<sodipodi:namedview  bordercolor="#666666" borderopacity="1.0" fit-margin-bottom="100" fit-margin-left="100" fit-margin-right="100" fit-margin-top="100" id="base" inkscape:bbox-nodes="false" inkscape:current-layer="layer4" inkscape:cx="735.01573" inkscape:cy="643.33906" inkscape:document-units="mm" inkscape:measure-end="540,973.714" inkscape:measure-start="540,1186.79" inkscape:object-nodes="true" inkscape:object-paths="true" inkscape:pageopacity="0.0" inkscape:pageshadow="2" inkscape:snap-bbox="true" inkscape:snap-bbox-edge-midpoints="false" inkscape:snap-bbox-midpoints="true" inkscape:snap-center="true" inkscape:snap-grids="false" inkscape:snap-intersection-paths="true" inkscape:snap-midpoints="true" inkscape:snap-nodes="true" inkscape:snap-object-midpoints="true" inkscape:snap-others="true" inkscape:snap-page="false" inkscape:snap-smooth-nodes="true" inkscape:snap-to-guides="false" inkscape:zoom="0.49497475" pagecolor="#ffffff" showgrid="false" units="px">
	</sodipodi:namedview>
<g id="layer1" transform="translate(36.691177,25.330988)" inkscape:groupmode="layer" inkscape:label="Layer 1">
	<path id="path4556" inkscape:connector-curvature="0" sodipodi:nodetypes="sssssssssssssssss" class="st0" d="M1091.8,652.9
		c0,62.1-12.6,121.3-35.3,175.1c-22.8,53.8-55.7,102.3-96.4,143s-89.2,73.6-143,96.4c-53.8,22.8-113,35.3-175.1,35.3
		s-121.3-12.6-175.1-35.3c-53.8-22.8-102.3-55.7-143-96.4s-73.6-89.2-96.4-143c-22.8-53.8-35.3-113-35.3-175.1
		c0-62.1,12.6-121.3,35.3-175.1c22.8-53.8,55.7-102.3,96.4-143s89.2-73.6,143-96.4c53.8-22.8,113-35.3,175.1-35.3
		s121.3,12.6,175.1,35.3c53.8,22.8,102.3,55.7,143,96.4c40.7,40.7,73.6,89.2,96.4,143C1079.2,531.7,1091.8,590.8,1091.8,652.9
		L1091.8,652.9z"/>
	<path id="path4544" inkscape:connector-curvature="0" sodipodi:nodetypes="czc" class="st1" d="M192.2,652.9
		c0,0,33.4,181.2,321.9,300.7S960,971,960,971"/>
	<path id="path4556-1" inkscape:connector-curvature="0" sodipodi:nodetypes="csssc" class="st2" d="M323.9,971.2
		c-71.6,0-136.3-35.6-183.2-93.2s-75.9-137.2-75.9-225s29-167.4,75.9-225s111.7-93.2,183.2-93.2"/>
	<path id="path4556-1-2" inkscape:connector-curvature="0" sodipodi:nodetypes="csssc" class="st3" d="M191.9,653.2
		c-50.6-50.6-71.2-121.6-63.6-195.5c7.6-73.9,43.3-150.6,105.5-212.8S372.6,147,446.5,139.5c73.9-7.6,144.9,13.1,195.5,63.6"/>
	<path id="path4556-1-8" inkscape:connector-curvature="0" sodipodi:nodetypes="csssc" class="st4" d="M323.9,335.3
		c0-71.6,35.6-136.3,93.2-183.2s137.2-75.9,225-75.9s167.4,29,225,75.9s93.2,111.7,93.2,183.2"/>
	<path id="path4556-1-2-4" inkscape:connector-curvature="0" sodipodi:nodetypes="csssc" class="st5" d="M642.2,205.7
		c50.6-50.6,121.6-71.2,195.5-63.6c73.9,7.6,150.6,43.3,212.8,105.5c62.1,62.1,97.9,138.9,105.5,212.8
		c7.6,73.9-13.1,144.9-63.6,195.5"/>
	<path id="path4556-1-6" inkscape:connector-curvature="0" sodipodi:nodetypes="csssc" class="st6" d="M960,334.5
		c71.6,0,136.3,35.6,183.2,93.2c46.9,57.6,75.9,137.2,75.9,225s-29,167.4-75.9,225C1096.4,935.4,1031.6,971,960,971"/>
	<path id="path4556-1-2-3" inkscape:connector-curvature="0" sodipodi:nodetypes="csssc" class="st7" d="M1092,652.5
		c50.6,50.6,71.2,121.6,63.6,195.5s-43.3,150.6-105.5,212.8s-138.9,97.9-212.8,105.5c-73.9,7.6-144.9-13.1-195.5-63.6"/>
	<path id="path4556-1-8-3" inkscape:connector-curvature="0" sodipodi:nodetypes="csssc" class="st8" d="M960,970.4
		c0,71.6-35.6,136.3-93.2,183.2c-57.6,46.9-137.2,75.9-225,75.9s-167.4-29-225-75.9c-57.6-46.9-93.2-111.7-93.2-183.2"/>
	<path id="path4556-1-2-4-3" inkscape:connector-curvature="0" sodipodi:nodetypes="csssc" class="st9" d="M641.8,1099.9
		c-50.6,50.6-121.6,71.2-195.5,63.6s-150.6-43.3-212.8-105.5s-97.9-138.9-105.5-212.8c-7.6-73.9,13.1-144.9,63.6-195.5"/>
	<path id="path4544-5" inkscape:connector-curvature="0" sodipodi:nodetypes="czc" class="st10" d="M323.9,334.7
		c0,0-104.5,151.8,15,440.2S642,1102.5,642,1102.5"/>
	<path id="path4544-1" inkscape:connector-curvature="0" sodipodi:nodetypes="czc" class="st11" d="M642.2,205.7
		c0,0-181.2,33.4-300.7,321.9s-17.4,446-17.4,446"/>
	<path id="path4544-5-8" inkscape:connector-curvature="0" sodipodi:nodetypes="czc" class="st12" d="M960,334.5
		c0,0-151.8-104.5-440.2,15S192.2,652.6,192.2,652.6"/>
	<path id="path4544-57" inkscape:connector-curvature="0" sodipodi:nodetypes="czc" class="st13" d="M1092.2,656.2
		c0,0-33.4,181.2-321.9,300.7s-446,17.4-446,17.4"/>
	<path id="path4544-5-85" inkscape:connector-curvature="0" sodipodi:nodetypes="czc" class="st14" d="M960.5,337.9
		c0,0,104.5,151.8-15,440.2c-119.5,288.5-303.1,327.6-303.1,327.6"/>
	<path id="path4544-1-9" inkscape:connector-curvature="0" sodipodi:nodetypes="czc" class="st15" d="M642.2,209
		c0,0,181.2,33.4,300.7,321.9s17.4,446,17.4,446"/>
	<path id="path4544-5-8-2" inkscape:connector-curvature="0" sodipodi:nodetypes="czc" class="st16" d="M324.4,337.7
		c0,0,151.8-104.5,440.2,15s327.6,303.1,327.6,303.1"/>
</g>
<g id="layer3" transform="translate(36.691177,36.580979)" inkscape:groupmode="layer" inkscape:label="Layer 2">
</g>
<g id="layer2" transform="translate(36.691177,36.580979)" inkscape:groupmode="layer" inkscape:label="Circles">
	<circle id="path4522" class="st17" cx="642" cy="191.9" r="88.9"/>
	<circle id="path4522-3" class="st18" cx="323.9" cy="324" r="88.9"/>
	<circle id="path4522-3-6" class="st19" cx="192.2" cy="641.7" r="88.9"/>
	<circle id="path4522-3-60" class="st20" cx="323.9" cy="959.7" r="88.9"/>
	<circle id="path4522-3-2" class="st21" cx="642" cy="1091.5" r="88.9"/>
	<circle id="path4522-3-0" class="st22" cx="960" cy="959.7" r="88.9"/>
	<circle id="path4522-3-01" class="st23" cx="1091.8" cy="641.7" r="88.9"/>
	<circle id="path4522-3-8" class="st24" cx="960" cy="323.6" r="88.9"/>
</g>
<g id="layer4" transform="translate(36.691177,36.580979)" inkscape:groupmode="layer" inkscape:label="Text">
	<text transform="matrix(1 0 0 1 628.1643 191.3214)" class="st25 st26">Ilo</text>
	<text transform="matrix(1 0 0 1 906.4553 324.628)" class="st25 st26">Luottamus</text>
	<text transform="matrix(1 0 0 1 1061.1526 654.6866)" class="st25 st26">Pelko</text>
	<text transform="matrix(1 0 0 1 906.6584 968.8604)" class="st25 st26">Hämmästys</text>
	<text transform="matrix(1 0 0 1 617.551 1095.3331)" class="st27 st25 st26">Suru</text>
	<text transform="matrix(1 0 0 1 300.7385 968.7823)" class="st25 st26">Inho</text>
	<text transform="matrix(1 0 0 1 162.3459 644.1241)" class="st27 st25 st26">Viha</text>
	<text transform="matrix(1 0 0 1 265.1506 323.4854)" class="st25 st26">Ennakoivuus</text>
	<text transform="matrix(0.9239 -0.3827 0.3827 0.9239 414.6694 259.3716)" class="st25 st26">Optimistisuus</text>
	<text transform="matrix(0.9239 -0.3827 0.3827 0.9239 756.2598 1088.8788)" class="st25 st26">Paheksuvuus</text>
	<text transform="matrix(0.9239 0.3827 -0.3827 0.9239 776.2597 219.457)" class="st25 st26">Rakkaus</text>
	<text transform="matrix(0.9239 0.3827 -0.3827 0.9239 425.1616 1043.3208)" class="st25 st26">Säälivyys</text>
	<text transform="matrix(0.3827 -0.9239 0.9239 0.3827 206.8784 539.0513)" class="st25 st26">Aggressiivisuus</text>
	<text transform="matrix(0.3827 -0.9239 0.9239 0.3827 1041.6299 860.8189)" class="st25 st26">Kunnioitus</text>
	<text transform="matrix(0.3827 0.9239 -0.9239 0.3827 1032.3203 434.1693)" class="st25 st26">Alistuvuus</text>
	<text transform="matrix(0.3827 0.9239 -0.9239 0.3827 896.79 481.6862)" class="st28 st25 st26">Ihastuvuus</text>
	<text transform="matrix(0.9239 -0.3827 0.3827 0.9239 474.8121 390.7637)" class="st29 st25 st26">Määräilevyys</text>
	<text transform="matrix(0.9239 -0.3827 0.3827 0.9239 708.7148 948.7452)" class="st30 st25 st26">Häpeilevyys</text>
	<text transform="matrix(0.9239 0.3827 -0.3827 0.9239 704.922 346.1444)" class="st31 st25 st26">Levottomuus</text>
	<text transform="matrix(0.9239 0.3827 -0.3827 0.9239 456.761 899.0928)" class="st32 st25 st26">Tyrmistyneisyys</text>
	<text transform="matrix(0.3827 -0.9239 0.9239 0.3827 346.3551 575.6454)" class="st33 st25 st26">Sarkastisuus</text>
	<text transform="matrix(0.3827 -0.9239 0.9239 0.3827 892.0601 840.8142)" class="st34 st25 st26">Tunteellisuus</text>
	<text transform="matrix(0.3827 0.9239 -0.9239 0.3827 196.5637 752.6262)" class="st25 st26">Halveksivuus</text>
	<text transform="matrix(0.3827 0.9239 -0.9239 0.3827 336.4435 707.4929)" class="st35 st25 st26">Pessimistisyys</text>
	<text transform="matrix(1 0 0 1 593.1917 46.1593)" class="st36 st25 st26">Toiveikkuus</text>
	<text transform="matrix(1 0 0 1 598.2698 1250.3741)" class="st37 st25 st26">Epäilevyys</text>
	<text transform="matrix(0.7071 0.7071 -0.7071 0.7071 1039.1462 199.3728)" class="st38 st25 st26">Syyllisyys</text>
	<text transform="matrix(0.7071 0.7071 -0.7071 0.7071 183.44 1042.4949)" class="st39 st25 st26">Kateus</text>
	<text transform="matrix(0.7071 -0.7071 0.7071 0.7071 206.1266 238.495)" class="st40 st25 st26">Ylpeys</text>
	<text transform="matrix(0.7071 -0.7071 0.7071 0.7071 1019.5364 1136.2449)" class="st41 st25 st26">Toivottomuus</text>
	<text transform="matrix(6.123234e-17 1 -1 6.123234e-17 1235.887 600.3174)" class="st42 st25 st26">Uteliaisuus</text>
	<text transform="matrix(6.123234e-17 -1 1 6.123234e-17 46.0803 701.378)" class="st43 st25 st26">Kyynisyys</text>
</g>
</svg>
