<?xml version="1.0" encoding="utf-8"?>
<!-- Generator: Adobe Illustrator 26.0.3, SVG Export Plug-In . SVG Version: 6.00 Build 0)  -->
<svg version="1.1" id="Layer_1" xmlns="http://www.w3.org/2000/svg" xmlns:xlink="http://www.w3.org/1999/xlink" x="0px" y="0px"
	 viewBox="0 0 1190.6 841.9" style="enable-background:new 0 0 1190.6 841.9;" xml:space="preserve">
<style type="text/css">
	.st0{fill:#96CEB8;}
	.st1{fill:#80B8A4;}
	.st2{fill:#6D9B8D;}
	.st3{fill:#F7BFBF;}
	.st4{fill:#E88783;}
	.st5{fill:#D85142;}
	.st6{fill:#F9CB5B;}
	.st7{fill:#F4D080;}
	.st8{fill:#FAEBBE;}
	.st9{fill:#939EA5;}
	.st10{fill:#60717B;}
	.st11{fill:#354655;}
	.st12{fill:#F47D20;}
	.st13{fill:#FAA757;}
	.st14{fill:#FDC48D;}
	.st15{fill:#A1999C;}
	.st16{fill:#6A5E63;}
	.st17{fill:#52454A;}
	.st18{fill:#83D2E6;}
	.st19{fill:#67BED3;}
	.st20{fill:#579DAD;}
	.st21{fill:#00B4A8;}
	.st22{fill:#6CC3B9;}
	.st23{fill:#A4D2C8;}
	.st24{enable-background:new    ;}
	.st25{fill:#010101;}
	.st26{font-family:'Eurostile-ExtendedTwo';}
	.st27{font-size:6px;}
	.st28{font-size:10px;}
	.st29{font-size:8px;}
	.st30{fill:#E8E4E2;}
	.st31{fill:#DDDAD7;}
	.st32{font-size:18px;}
	.st33{font-size:4px;}
</style>
<path class="st0" d="M466.6,441.4c21.6-1.3,43.6-4.6,65.5-10.8c3.7-24.5,3.8-49.7,0-74.9c-22.2-6.5-44.2-9.7-65.5-10.9
	C475.3,377.2,474.9,410.4,466.6,441.4z"/>
<path class="st1" d="M399.8,345.5c6.1,14.7,9.4,30.7,9.4,47.6s-3.4,32.9-9.4,47.6c21.2,1.4,43.7,2.1,66.8,0.7
	c8.3-31,8.7-64.2,0-96.7C443.5,343.3,421.1,344.2,399.8,345.5z"/>
<path class="st2" d="M399.8,440.7c12.6-30.4,12.6-64.8,0-95.2l-114.9,47.6L399.8,440.7z"/>
<path class="st3" d="M103.2,344.7c-21.4,1.3-43.3,4.5-65.5,10.9c-3.7,24.5-3.8,49.7,0,74.9c21.9,6.3,44,9.5,65.5,10.8
	C94.5,408.9,95,375.7,103.2,344.7z"/>
<path class="st4" d="M170,440.7L170,440.7c-6.1-14.7-9.4-30.7-9.4-47.6s3.4-32.9,9.4-47.6l0,0c-21.3-1.3-43.6-2.1-66.7-0.8
	c-8.3,31-8.7,64.2,0,96.7C126.3,442.8,148.7,442.1,170,440.7z"/>
<path class="st5" d="M170,345.5c-12.6,30.4-12.6,64.8,0,95.2l114.9-47.6L170,345.5z"/>
<path class="st6" d="M237.3,278.2l47.6,114.9l47.6-114.9C302.1,265.6,267.7,265.6,237.3,278.2z"/>
<path class="st7" d="M237.3,278.2L237.3,278.2c14.7-6.1,30.7-9.4,47.6-9.4s32.9,3.4,47.6,9.4l0,0l0,0c1.3-21.3,2.1-43.6,0.8-66.7
	c-31-8.3-64.2-8.7-96.7,0C235.2,234.4,235.9,256.9,237.3,278.2z"/>
<path class="st8" d="M333.3,211.4c-1.3-21.4-4.5-43.3-10.9-65.5c-24.5-3.7-49.7-3.8-74.9,0c-6.3,21.9-9.5,44-10.8,65.5
	C269.1,202.7,302.3,203.2,333.3,211.4z"/>
<path class="st9" d="M236.6,574.8c1.3,21.6,4.6,43.6,10.8,65.5c24.5,3.7,49.7,3.8,74.9,0c6.5-22.2,9.6-44.2,10.9-65.5
	C300.8,583.5,267.6,583,236.6,574.8z"/>
<path class="st10" d="M332.5,508L332.5,508c-14.7,6.1-30.7,9.4-47.6,9.4S252,514,237.3,508l0,0c-1.4,21.2-2.1,43.7-0.7,66.8
	c31,8.3,64.2,8.7,96.7,0C334.7,551.7,333.8,529.3,332.5,508z"/>
<path class="st11" d="M332.5,508l-47.6-114.9L237.3,508C267.7,520.6,302.1,520.6,332.5,508z"/>
<path class="st12" d="M170,345.5l114.9,47.6l-47.6-114.9C206.9,290.8,182.6,315.1,170,345.5z"/>
<path class="st13" d="M170,345.5L170,345.5c12.6-30.4,36.9-54.7,67.3-67.3l0,0c-14.1-16-29.4-32.4-46.7-47.7
	c-29.1,16.8-52.3,40.6-68.4,68.4C137.6,316.1,154,331.5,170,345.5z"/>
<path class="st14" d="M190.6,230.4c-16-14.2-33.8-27.5-54.1-38.6c-20.5,15.1-38.3,33-52.9,53c11.1,19.9,24.4,37.8,38.7,54
	C138.3,271.1,161.5,247.2,190.6,230.4z"/>
<path class="st15" d="M122.2,487.4c-14.2,16-27.5,33.8-38.6,54.1c15.1,20.5,33,38.3,53,52.9c19.9-11.1,37.8-24.4,54-38.7
	C162.9,539.7,139,516.5,122.2,487.4z"/>
<path class="st16" d="M237.3,508L237.3,508c-30.4-12.6-54.7-36.9-67.3-67.3l0,0c-16,14.1-32.4,29.4-47.7,46.7
	c16.8,29.1,40.6,52.3,68.4,68.4C207.9,540.5,223.3,524,237.3,508z"/>
<path class="st17" d="M237.3,508l47.6-114.9L170,440.7C182.6,471.1,206.9,495.4,237.3,508z"/>
<path class="st18" d="M486.2,541.5c-11.1-20.3-24.4-38.1-38.6-54.1c-16,27.7-39.2,51.6-68.3,68.4c16.2,14.3,34.1,27.6,54,38.7
	C453.7,579.3,471.5,561.4,486.2,541.5z"/>
<path class="st19" d="M399.8,440.7c-12.6,30.4-36.9,54.7-67.3,67.3c14,16,29.4,32.4,46.7,47.7c29.1-16.8,52.3-40.6,68.3-68.4
	C432.2,470.1,415.8,454.8,399.8,440.7z"/>
<path class="st20" d="M399.8,440.7l-114.9-47.6L332.5,508C362.9,495.4,387.2,471.1,399.8,440.7z"/>
<path class="st21" d="M284.9,393.1l114.9-47.6c-12.6-30.4-36.9-54.7-67.3-67.3L284.9,393.1z"/>
<path class="st22" d="M332.5,278.1C332.5,278.1,332.5,278.2,332.5,278.1L332.5,278.1c30.4,12.6,54.7,36.9,67.3,67.3
	c16-14,32.4-29.4,47.7-46.7c-16.8-29.1-40.6-52.3-68.4-68.3C361.9,245.8,346.6,262.2,332.5,278.1z"/>
<path class="st23" d="M447.5,298.8c14.3-16.2,27.6-34.1,38.7-54c-15.1-20.5-33-38.3-53-52.9c-20.3,11.1-38.1,24.4-54.1,38.6
	C406.9,246.5,430.7,269.7,447.5,298.8z"/>
<g>
	<text transform="matrix(0.4739 0.8806 -0.8806 0.4739 190.5665 170.5404)" class="st24"><tspan x="0" y="0" class="st25 st26 st27">ENNAKOINTI&amp;ILO</tspan><tspan x="-1.4" y="12" class="st25 st26 st28">OPTIMISMI</tspan></text>
	<text transform="matrix(0.8049 -1.2183 0.8343 0.5513 344.3491 235.585)" class="st24"><tspan x="0" y="0" class="st25 st26 st27">ILO&amp;LUOTTAMUS</tspan><tspan x="0" y="12" class="st25 st26 st28">RAKKAUS</tspan></text>
	<text transform="matrix(0.9129 0.4082 -0.4082 0.9129 57.4498 289.3825)" class="st24"><tspan x="0" y="0" class="st25 st26 st27">ENNAKOINTI&amp;VIHA</tspan><tspan x="-19.8" y="12" class="st25 st26 st28">AGRESSIIVISUUS</tspan></text>
	<text transform="matrix(0.923 -0.3847 0.3847 0.923 435.9167 325.6504)" class="st24"><tspan x="0" y="0" class="st25 st26 st27">LUOTTAMUS&amp;PELKO</tspan><tspan x="0" y="12" class="st25 st26 st28">ALISTUVUUS</tspan></text>
	<text transform="matrix(0.9422 0.3352 -0.3352 0.9422 446.7824 459.1208)" class="st24"><tspan x="0" y="0" class="st25 st26 st27">PELKO&amp;YLLÄTYS</tspan><tspan x="-7.7" y="12" class="st25 st26 st28">KUNNIOITUS</tspan></text>
	<text transform="matrix(0.4739 0.8806 -0.8806 0.4739 357.0635 548.9176)" class="st24"><tspan x="0" y="0" class="st25 st26 st27">YLLÄTYS&amp;SURU</tspan><tspan x="-4.5" y="12" class="st25 st26 st28">PETTYMYS</tspan></text>
	<text transform="matrix(0.923 -0.3847 0.3847 0.923 61.578 479.6252)" class="st24"><tspan x="0" y="0" class="st25 st26 st27">TYMPEYS&amp;VIHA</tspan><tspan x="-19.2" y="12" class="st25 st26 st28">HALVEKSUNTA</tspan></text>
	<text transform="matrix(0.8049 -1.2183 0.8343 0.5513 174.0948 618.4675)" class="st24"><tspan x="0" y="0" class="st25 st26 st27">TYMPEYS&amp;SURU</tspan><tspan x="15.8" y="12" class="st25 st26 st28">SÄÄLI</tspan></text>
</g>
<text transform="matrix(3.086208e-02 -0.9995 0.9995 3.086208e-02 76.8014 428.3246)" class="st25 st26 st28">ÄRTYMYS</text>
<text transform="matrix(2.830629e-02 -0.9996 0.9996 2.830629e-02 179.346 416.3731)" class="st25 st26 st28">RAIVO</text>
<text transform="matrix(3.086208e-02 -0.9995 0.9995 3.086208e-02 130.8923 410.019)" class="st25 st26 st28">VIHA</text>
<g>
	<text transform="matrix(0.7398 -0.6729 0.6729 0.7398 187.4124 335.0255)" class="st25 st26 st29">OHJAILU</text>
	<text transform="matrix(0.7398 -0.6729 0.6729 0.7398 153.3824 312.7765)" class="st25 st26 st29">ENNAKOINTI</text>
	<text transform="matrix(0.6966 -0.7175 0.7175 0.6966 111.0986 270.14)" class="st25 st26 st29">KIINNOSTUS</text>
	<text transform="matrix(0.7398 -0.6729 0.6729 0.7398 336.1045 498.7474)" class="st25 st26 st29">HÄMMÄSTYS</text>
</g>
<text transform="matrix(1.0264 0 0 1 265.2873 291.4387)" class="st25 st26 st29">HURMIO</text>
<text transform="matrix(1.0264 0 0 1 275.2873 241.9548)" class="st25 st26 st29">ILO</text>
<text transform="matrix(1.0264 0 0 1 258.2873 184.6252)" class="st25 st26 st29">TYYNEYS</text>
<text transform="matrix(1.0264 0 0 1 260.2973 505.5271)" class="st30 st26 st29">MURHE</text>
<g>
	<text transform="matrix(0.6729 0.7398 -0.7398 0.6729 347.4223 301.4962)" class="st25 st26 st29">IHAILU</text>
	<text transform="matrix(0.6729 0.7398 -0.7398 0.6729 367.7696 258.4032)" class="st25 st26 st29">LUOTTAMUS</text>
	<text transform="matrix(0.6729 0.7398 -0.7398 0.6729 408.3986 213.7192)" class="st25 st26 st29">HYVÄKSYNTÄ</text>
</g>
<text transform="matrix(-1.415458e-02 0.9999 -0.9999 -1.415458e-02 393.6318 367.1713)" class="st25 st26 st29">KAUHU</text>
<text transform="matrix(5.208200e-03 1 -1 5.208200e-03 494.0367 348.9858)" class="st25 st26 st29">LEVOTTOMUUS</text>
<text transform="matrix(4.959472e-02 0.9988 -0.9988 4.959472e-02 435.4482 370.3062)" class="st25 st26 st29">PELKO</text>
<g>
	<text transform="matrix(0.7398 -0.6729 0.6729 0.7398 376.8051 526.5142)" class="st25 st26 st29">YLLÄTYS</text>
	<text transform="matrix(0.6966 -0.7175 0.7175 0.6966 417.5829 578.2216)" class="st25 st26 st29">HÄMMENNYS</text>
</g>
<g>
	<text transform="matrix(1.0814 1.530769e-02 -1.415458e-02 0.9999 241.3608 610.5112)" class="st25 st26 st29">APAATTISUUS</text>
</g>
<text transform="matrix(0.7175 0.6966 -0.6966 0.7175 109.2267 531.9711)" class="st25 st26 st29">TYLSYYS</text>
<text transform="matrix(0.7175 0.6966 -0.6966 0.7175 151.5958 487.4565)" class="st25 st26 st29">TYMPEYS</text>
<text transform="matrix(0.7175 0.6966 -0.6966 0.7175 191.1808 464.5932)" class="st31 st26 st29">INHO</text>
<text transform="matrix(1.0264 0 0 1 264.9467 557.9363)" class="st25 st26 st29">SURU</text>
<text transform="matrix(1.0264 0 0 1 351.2575 677.5696)" class="st25 st26 st32">HYVÄN MIELEN RYHMÄ</text>
<rect x="853.5" y="530.1" class="st4" width="40" height="10"/>
<g>
	<rect x="813.8" y="102" class="st7" width="40" height="10"/>
	<text transform="matrix(1.0264 0 0 1 829.0938 108.2871)" class="st25 st26 st33">ILO</text>
</g>
<g>
	<rect x="853.7" y="102" class="st22" width="40" height="10"/>
	<text transform="matrix(1.0264 0 0 1 855.0938 108.2871)" class="st25 st26 st33">LUOTTAMUS</text>
</g>
<text transform="matrix(1.0264 0 0 1 813.7238 118.505)" class="st25 st26 st29">RAKKAUS</text>
<g>
	<rect x="813.7" y="125.1" class="st7" width="40" height="10"/>
	<text transform="matrix(1.0264 0 0 1 828.9756 131.3564)" class="st25 st26 st33">ILO</text>
</g>
<g>
	<rect x="813.7" y="147.1" class="st7" width="40" height="10"/>
	<text transform="matrix(1.0264 0 0 1 828.9756 153.3564)" class="st25 st26 st33">ILO</text>
</g>
<g>
	<rect x="813.7" y="170.1" class="st7" width="40" height="10"/>
	<text transform="matrix(1.0264 0 0 1 828.9756 176.3564)" class="st25 st26 st33">ILO</text>
</g>
<rect x="853.7" y="125.1" class="st1" width="40" height="10"/>
<text transform="matrix(1.0264 0 0 1 863.5391 131.2871)" class="st25 st26 st33">PELKO</text>
<rect x="853.7" y="147.1" class="st19" width="40" height="10"/>
<text transform="matrix(1.0264 0 0 1 859.9746 153.7871)" class="st25 st26 st33">YLLÄTYS</text>
<rect x="853.7" y="170.1" class="st10" width="40" height="10"/>
<text transform="matrix(1.0264 0 0 1 865.0273 176.3799)" class="st25 st26 st33">SURU</text>
<g>
	<rect x="813.7" y="192.6" class="st7" width="40" height="10"/>
	<text transform="matrix(1.0264 0 0 1 828.9756 198.8564)" class="st25 st26 st33">ILO</text>
</g>
<rect x="853.7" y="192.6" class="st16" width="40" height="10"/>
<g>
	<rect x="813.7" y="213.6" class="st7" width="40" height="10"/>
	<text transform="matrix(1.0264 0 0 1 828.9756 219.8564)" class="st25 st26 st33">ILO</text>
</g>
<rect x="853.7" y="213.6" class="st4" width="40" height="10"/>
<g>
	<rect x="813.7" y="235.6" class="st7" width="40" height="10"/>
	<text transform="matrix(1.0264 0 0 1 828.9756 241.8564)" class="st25 st26 st33">ILO</text>
</g>
<rect x="853.7" y="235.6" class="st13" width="40" height="10"/>
<text transform="matrix(1.0264 0 0 1 859.1738 199.2871)" class="st25 st26 st33">TYMPEYS</text>
<text transform="matrix(1.0264 0 0 1 866.6738 220.2871)" class="st25 st26 st33">VIHA</text>
<text transform="matrix(1.0264 0 0 1 855.6738 241.7871)" class="st25 st26 st33">ENNAKOINTI</text>
<text transform="matrix(1.0264 0 0 1 814.6991 274.505)" class="st25 st26 st29">ALISTUVUUS</text>
<text transform="matrix(1.0264 0 0 1 814.5125 610.6252)" class="st25 st26 st29">KATEUS</text>
<text transform="matrix(1.0264 0 0 1 814.0242 630.6389)" class="st25 st26 st29">PESSIMISMI</text>
<rect x="813.6" y="256.5" class="st22" width="40" height="10"/>
<text transform="matrix(1.0264 0 0 1 815.0049 263.3564)" class="st25 st26 st33">LUOTTAMUS</text>
<rect x="813.6" y="277.5" class="st22" width="40" height="10"/>
<text transform="matrix(1.0264 0 0 1 815.0049 283.7871)" class="st25 st26 st33">LUOTTAMUS</text>
<rect x="813.6" y="297.4" class="st22" width="40" height="10"/>
<text transform="matrix(1.0264 0 0 1 815.0049 303.6064)" class="st25 st26 st33">LUOTTAMUS</text>
<rect x="813.6" y="317.9" class="st22" width="40" height="10"/>
<text transform="matrix(1.0264 0 0 1 815.0049 324.1064)" class="st25 st26 st33">LUOTTAMUS</text>
<g>
	<rect x="813.6" y="340.4" class="st22" width="40" height="10"/>
	<text transform="matrix(1.0264 0 0 1 815.0049 346.6064)" class="st25 st26 st33">LUOTTAMUS</text>
</g>
<g>
	<rect x="813.6" y="362.4" class="st22" width="40" height="10"/>
	<text transform="matrix(1.0264 0 0 1 815.0049 368.6064)" class="st25 st26 st33">LUOTTAMUS</text>
</g>
<text transform="matrix(1.0264 0 0 1 814.8694 590.1389)" class="st25 st26 st29">KATUMUS</text>
<text transform="matrix(1.0264 0 0 1 814.4429 651.5049)" class="st25 st26 st29">HALVEKSUNTA</text>
<rect x="853.5" y="256.5" class="st1" width="40" height="10"/>
<text transform="matrix(1.0264 0 0 1 863.335 262.7178)" class="st25 st26 st33">PELKO</text>
<rect x="853.5" y="277.5" class="st19" width="40" height="10"/>
<text transform="matrix(1.0264 0 0 1 859.7705 283.7178)" class="st25 st26 st33">YLLÄTYS</text>
<rect x="853.5" y="297.4" class="st10" width="40" height="10"/>
<text transform="matrix(1.0264 0 0 1 864.8242 303.6299)" class="st25 st26 st33">SURU</text>
<rect x="853.5" y="318.4" class="st16" width="40" height="10"/>
<rect x="853.5" y="340.9" class="st4" width="40" height="10"/>
<rect x="853.5" y="362.4" class="st13" width="40" height="10"/>
<text transform="matrix(1.0264 0 0 1 858.9697 324.5371)" class="st25 st26 st33">TYMPEYS</text>
<text transform="matrix(1.0264 0 0 1 866.4697 347.0371)" class="st25 st26 st33">VIHA</text>
<text transform="matrix(1.0264 0 0 1 855.4697 369.0371)" class="st25 st26 st33">ENNAKOINTI</text>
<text transform="matrix(1.0264 0 0 1 813.1708 142.505)" class="st25 st26 st29">SYYLLISYYS</text>
<text transform="matrix(1.0264 0 0 1 813.3902 165.5049)" class="st25 st26 st29">IHASTUS</text>
<text transform="matrix(1.0264 0 0 1 813.0885 189.5689)" class="st25 st26 st29">KATKERANSULOISUUS</text>
<text transform="matrix(1.0264 0 0 1 814.1294 210.5049)" class="st25 st26 st29">SARKASTISUUS</text>
<text transform="matrix(1.0264 0 0 1 814.0007 232.5049)" class="st25 st26 st29">YLPEYS</text>
<text transform="matrix(1.0264 0 0 1 814.0125 253.5049)" class="st25 st26 st29">OPTIMISMI</text>
<text transform="matrix(1.0264 0 0 1 814.7388 295.5049)" class="st25 st26 st29">UTELIAISUUS</text>
<text transform="matrix(1.0264 0 0 1 813.6086 315.5049)" class="st25 st26 st29">TUNTEELLISUUS</text>
<text transform="matrix(1.0264 0 0 1 814.1592 336.5049)" class="st25 st26 st29">EPÄVAKAUS</text>
<text transform="matrix(1.0264 0 0 1 814.8601 359.6909)" class="st25 st26 st29">PAHEKSUNTA</text>
<text transform="matrix(1.0264 0 0 1 814.1137 380.6909)" class="st25 st26 st29">KOHTALONOMAISUUS</text>
<rect x="813.6" y="383.2" class="st1" width="40" height="10"/>
<rect x="813.6" y="404" class="st1" width="40" height="10"/>
<rect x="813.6" y="424" class="st1" width="40" height="10"/>
<rect x="813.5" y="444.5" class="st1" width="40" height="10"/>
<rect x="813.6" y="465" class="st1" width="40" height="10"/>
<text transform="matrix(1.0264 0 0 1 823.9746 389.2871)" class="st25 st26 st33">PELKO</text>
<rect x="853.5" y="383.2" class="st19" width="40" height="10"/>
<text transform="matrix(1.0264 0 0 1 859.7705 389.3779)" class="st25 st26 st33">YLLÄTYS</text>
<rect x="853.5" y="404" class="st10" width="40" height="10"/>
<text transform="matrix(1.0264 0 0 1 864.8242 410.29)" class="st25 st26 st33">SURU</text>
<rect x="853.5" y="424" class="st16" width="40" height="10"/>
<rect x="853.5" y="444.5" class="st4" width="40" height="10"/>
<rect x="853.5" y="465.5" class="st13" width="40" height="10"/>
<text transform="matrix(1.0264 0 0 1 858.9697 430.1973)" class="st25 st26 st33">TYMPEYS</text>
<text transform="matrix(1.0264 0 0 1 866.4697 450.6973)" class="st25 st26 st33">VIHA</text>
<text transform="matrix(1.0264 0 0 1 855.4697 471.6973)" class="st25 st26 st33">ENNAKOINTI</text>
<text transform="matrix(1.0264 0 0 1 823.9746 409.7871)" class="st25 st26 st33">PELKO</text>
<text transform="matrix(1.0264 0 0 1 823.9746 429.7871)" class="st25 st26 st33">PELKO</text>
<text transform="matrix(1.0264 0 0 1 823.9746 450.2871)" class="st25 st26 st33">PELKO</text>
<text transform="matrix(1.0264 0 0 1 823.9746 470.7871)" class="st25 st26 st33">PELKO</text>
<text transform="matrix(1.0264 0 0 1 813.3618 401.6909)" class="st25 st26 st29">SÄIKÄHDYS</text>
<text transform="matrix(1.0264 0 0 1 814.1671 422.6908)" class="st25 st26 st29">HEMPEILY</text>
<text transform="matrix(1.0264 0 0 1 814.4481 442.5048)" class="st25 st26 st29">HÄPEÄ</text>
<text transform="matrix(1.0264 0 0 1 813.2716 463.6908)" class="st25 st26 st29">JÄÄTÄVYYS</text>
<text transform="matrix(1.0264 0 0 1 813.5242 483.6907)" class="st25 st26 st29">LEVOTTOMUUS</text>
<rect x="813.7" y="486.6" class="st1" width="40" height="10"/>
<rect x="813.7" y="508.6" class="st1" width="40" height="10"/>
<rect x="813.7" y="529.6" class="st1" width="40" height="10"/>
<rect x="813.7" y="551.1" class="st1" width="40" height="10"/>
<text transform="matrix(1.0264 0 0 1 821.0635 492.8779)" class="st25 st26 st33">YLLÄTYS</text>
<text transform="matrix(1.0264 0 0 1 821.0273 514.8799)" class="st25 st26 st33">YLLÄTYS</text>
<text transform="matrix(1.0264 0 0 1 821.0273 535.8799)" class="st25 st26 st33">YLLÄTYS</text>
<text transform="matrix(1.0264 0 0 1 821.0273 557.3799)" class="st25 st26 st33">YLLÄTYS</text>
<rect x="853.5" y="487.1" class="st10" width="40" height="10"/>
<text transform="matrix(1.0264 0 0 1 864.8242 492.8799)" class="st25 st26 st33">SURU</text>
<rect x="853.5" y="508.6" class="st16" width="40" height="10"/>
<rect x="853.5" y="551.6" class="st13" width="40" height="10"/>
<text transform="matrix(1.0264 0 0 1 858.9697 514.7871)" class="st25 st26 st33">TYMPEYS</text>
<text transform="matrix(1.0264 0 0 1 855.4697 558.2871)" class="st25 st26 st33">ENNAKOINTI</text>
<text transform="matrix(1.0264 0 0 1 866.7002 536.2871)" class="st25 st26 st33">VIHA</text>
<text transform="matrix(1.0264 0 0 1 813.7803 505.5047)" class="st25 st26 st29">PETTYMYS</text>
<text transform="matrix(1.0264 0 0 1 814.1174 527.5046)" class="st25 st26 st29">EPÄUSKO</text>
<text transform="matrix(1.0264 0 0 1 814.2017 548.6909)" class="st25 st26 st29">TYRMISTYS</text>
<text transform="matrix(1.0264 0 0 1 814.3869 569.5051)" class="st25 st26 st29">SEKAANNUS</text>
<rect x="813.7" y="571.9" class="st1" width="40" height="10"/>
<rect x="813.7" y="591.9" class="st1" width="40" height="10"/>
<rect x="813.7" y="612.4" class="st1" width="40" height="10"/>
<text transform="matrix(1.0264 0 0 1 824.5273 577.6299)" class="st25 st26 st33">SURU</text>
<text transform="matrix(1.0264 0 0 1 824.6738 598.2871)" class="st25 st26 st33">SURU</text>
<text transform="matrix(1.0264 0 0 1 824.6738 618.2871)" class="st25 st26 st33">SURU</text>
<rect x="853.5" y="592.6" class="st4" width="40" height="10"/>
<rect x="853.5" y="572.1" class="st16" width="40" height="10"/>
<rect x="853.5" y="613.1" class="st13" width="40" height="10"/>
<text transform="matrix(1.0264 0 0 1 858.9697 578.2871)" class="st25 st26 st33">TYMPEYS</text>
<text transform="matrix(1.0264 0 0 1 855.4697 619.2871)" class="st25 st26 st33">ENNAKOINTI</text>
<text transform="matrix(1.0264 0 0 1 866.7002 598.7871)" class="st25 st26 st33">VIHA</text>
<rect x="813.7" y="632.9" class="st1" width="40" height="10"/>
<rect x="813.7" y="653.4" class="st1" width="40" height="10"/>
<text transform="matrix(1.0264 0 0 1 819.1738 639.2871)" class="st25 st26 st33">TYMPEYS</text>
<text transform="matrix(1.0264 0 0 1 818.6738 659.2871)" class="st25 st26 st33">TYMPEYS</text>
<rect x="853.5" y="633.4" class="st4" width="40" height="10"/>
<rect x="853.5" y="653.9" class="st13" width="40" height="10"/>
<text transform="matrix(1.0264 0 0 1 855.4697 660.0371)" class="st25 st26 st33">ENNAKOINTI</text>
<text transform="matrix(1.0264 0 0 1 866.7002 639.5371)" class="st25 st26 st33">VIHA</text>
<text transform="matrix(1.0264 0 0 1 814.0437 671.5046)" class="st25 st26 st29">KÄRKEVYYS</text>
<rect x="853.2" y="674.1" class="st4" width="40" height="10"/>
<text transform="matrix(1.0264 0 0 1 866.4043 680.7871)" class="st25 st26 st33">VIHA</text>
<rect x="813.5" y="674.1" class="st13" width="40" height="10"/>
<text transform="matrix(1.0264 0 0 1 815.4697 680.7871)" class="st25 st26 st33">ENNAKOINTI</text>
<text transform="matrix(1.0264 0 0 1 814.1943 692.6909)" class="st25 st26 st29">AGRESSIIVISUUS</text>
</svg>
