<?xml version="1.0" encoding="utf-8"?>
<!-- Generator: Adobe Illustrator 26.0.3, SVG Export Plug-In . SVG Version: 6.00 Build 0)  -->
<svg version="1.1" id="Layer_1" xmlns="http://www.w3.org/2000/svg" xmlns:xlink="http://www.w3.org/1999/xlink" x="0px" y="0px"
	 viewBox="0 0 715 725" style="enable-background:new 0 0 715 725;" xml:space="preserve">
<style type="text/css">
	.st0{fill:none;stroke:#000000;stroke-width:2;stroke-dasharray:6;}
	.st1{fill:none;stroke:#000000;stroke-width:2;stroke-dasharray:4;}
	.st2{fill:#FFC5C5;stroke:#000000;stroke-width:2;}
	.st3{fill:#C5E2C5;stroke:#000000;stroke-width:2;}
	.st4{fill:#8CC68C;stroke:#000000;stroke-width:2;}
	.st5{fill:#009600;stroke:#000000;stroke-width:2;}
	.st6{fill:#008000;stroke:#000000;stroke-width:2;}
	.st7{fill:#FF8C8C;stroke:#000000;stroke-width:2;}
	.st8{fill:#FF0000;stroke:#000000;stroke-width:2;}
	.st9{fill:#D40000;stroke:#000000;stroke-width:2;}
	.st10{fill:#FFE854;stroke:#000000;stroke-width:2;}
	.st11{fill:#FFFF54;stroke:#000000;stroke-width:2;}
	.st12{fill:#FFFFB1;stroke:#000000;stroke-width:2;}
	.st13{fill:#FEFFDD;stroke:#000000;stroke-width:2;}
	.st14{fill:#C5C5FF;stroke:#000000;stroke-width:2;}
	.st15{fill:#8C8CFF;stroke:#000000;stroke-width:2;}
	.st16{fill:#5151FF;stroke:#000000;stroke-width:2;}
	.st17{fill:#0000C8;stroke:#000000;stroke-width:2;}
	.st18{fill:#FF7D00;stroke:#000000;stroke-width:2;}
	.st19{fill:#FFA854;stroke:#000000;stroke-width:2;}
	.st20{fill:#FFC48C;stroke:#000000;stroke-width:2;}
	.st21{fill:#FFE2FF;stroke:#000000;stroke-width:2;}
	.st22{fill:#FFC6FF;stroke:#000000;stroke-width:2;}
	.st23{fill:#FF54FF;stroke:#000000;stroke-width:2;}
	.st24{fill:#DE00DE;stroke:#000000;stroke-width:2;}
	.st25{fill:#D5EEFF;stroke:#000000;stroke-width:2;}
	.st26{fill:#A5DBFF;stroke:#000000;stroke-width:2;}
	.st27{fill:#59BDFF;stroke:#000000;stroke-width:2;}
	.st28{fill:#0089E0;stroke:#000000;stroke-width:2;}
	.st29{fill:#C5FFC5;stroke:#000000;stroke-width:2;}
	.st30{fill:#00B400;stroke:#000000;stroke-width:2;}
	.st31{fill:#54FF54;stroke:#000000;stroke-width:2;}
	.st32{fill:#8CFF8C;stroke:#000000;stroke-width:2;}
	.st33{fill:#FFE1C5;stroke:#000000;stroke-width:2;}
	.st34{font-family:'DejaVuSans';}
	.st35{font-size:14px;}
	.st36{enable-background:new    ;}
	.st37{fill:#FFFFFF;}
</style>
<g id="circles">
	<circle id="outer-ring" class="st0" cx="357.5" cy="362.5" r="250"/>
	<circle id="inner-ring" class="st1" cx="357.5" cy="362.5" r="188"/>
</g>
<g id="areas">
	<path class="st2" d="M110.3,325c-25.6,7.4-51.5,19.2-77.3,37.4c25,18.2,51.1,30,77.3,37.5C106.5,374.8,106.6,349.6,110.3,325z"/>
	<path class="st3" d="M604.7,400c26.2-7.5,52.3-19.3,77.3-37.5c-25.8-18.2-51.7-30-77.3-37.4C608.6,350.2,608.5,375.5,604.7,400z"/>
	<path class="st4" d="M539.2,410.8c21.6-1.3,43.6-4.6,65.5-10.8c3.7-24.5,3.8-49.7,0-74.9c-22.2-6.5-44.2-9.7-65.5-10.9
		C547.9,346.6,547.5,379.8,539.2,410.8z"/>
	<path class="st5" d="M472.4,314.9c6.1,14.7,9.4,30.7,9.4,47.6c0,16.9-3.4,32.9-9.4,47.6c21.2,1.4,43.7,2.1,66.8,0.7
		c8.3-31,8.7-64.2,0-96.7C516.1,312.7,493.7,313.6,472.4,314.9z"/>
	<path class="st6" d="M472.4,410.1c12.6-30.4,12.6-64.8,0-95.2l-114.9,47.6L472.4,410.1z"/>
	<path class="st7" d="M175.8,314.1c-21.4,1.3-43.3,4.5-65.5,10.9c-3.7,24.5-3.8,49.7,0,74.9c21.9,6.3,44,9.5,65.5,10.8
		C167.1,378.3,167.6,345.1,175.8,314.1z"/>
	<path class="st8" d="M242.6,410.1L242.6,410.1c-6.1-14.7-9.4-30.7-9.4-47.6c0-16.9,3.4-32.9,9.4-47.6l0,0
		c-21.3-1.3-43.6-2.1-66.7-0.8c-8.3,31-8.7,64.2,0,96.7C198.9,412.2,221.3,411.5,242.6,410.1z"/>
	<path class="st9" d="M242.6,314.9c-12.6,30.4-12.6,64.8,0,95.2l114.9-47.6L242.6,314.9z"/>
	<path class="st10" d="M309.9,247.6l47.6,114.9l47.6-114.9C374.7,235,340.3,235,309.9,247.6z"/>
	<path class="st11" d="M309.9,247.6L309.9,247.6c14.7-6.1,30.7-9.4,47.6-9.4c16.9,0,32.9,3.4,47.6,9.4l0,0c0,0,0,0,0,0
		c1.3-21.3,2.1-43.6,0.8-66.7c-31-8.3-64.2-8.7-96.7,0C307.8,203.8,308.5,226.3,309.9,247.6z"/>
	<path class="st12" d="M405.9,180.8c-1.3-21.4-4.5-43.3-10.9-65.5c-24.5-3.7-49.7-3.8-74.9,0c-6.3,21.9-9.5,44-10.8,65.5
		C341.7,172.1,374.9,172.6,405.9,180.8z"/>
	<path class="st13" d="M394.9,115.3c-7.4-25.5-19.2-51.5-37.4-77.3c-18.2,25-30,51.1-37.5,77.3C345.2,111.4,370.4,111.6,394.9,115.3
		z"/>
	<path class="st14" d="M320,609.7c7.5,26.2,19.3,52.3,37.5,77.3c18.2-25.8,30-51.7,37.4-77.3C369.8,613.6,344.5,613.4,320,609.7z"/>
	<path class="st15" d="M309.2,544.2c1.3,21.6,4.6,43.6,10.8,65.5c24.5,3.7,49.7,3.8,74.9,0c6.5-22.2,9.6-44.2,10.9-65.5
		C373.4,552.9,340.2,552.4,309.2,544.2z"/>
	<path class="st16" d="M405.1,477.4L405.1,477.4c-14.7,6.1-30.7,9.4-47.6,9.4c-16.9,0-32.9-3.4-47.6-9.4l0,0
		c-1.4,21.2-2.1,43.7-0.7,66.8c31,8.3,64.2,8.7,96.7,0C407.3,521.1,406.4,498.7,405.1,477.4z"/>
	<path class="st17" d="M405.1,477.4l-47.6-114.9l-47.6,114.9C340.3,490,374.7,490,405.1,477.4z"/>
	<path class="st18" d="M242.6,314.9l114.9,47.6l-47.6-114.9C279.5,260.2,255.2,284.5,242.6,314.9z"/>
	<path class="st19" d="M242.6,314.9L242.6,314.9c12.6-30.4,36.9-54.7,67.3-67.3l0,0c-14.1-16-29.4-32.4-46.7-47.7
		c-29.1,16.8-52.3,40.6-68.4,68.4C210.2,285.5,226.6,300.9,242.6,314.9z"/>
	<path class="st20" d="M263.2,199.8c-16-14.2-33.8-27.5-54.1-38.6c-20.5,15.1-38.3,33-52.9,53c11.1,19.9,24.4,37.8,38.7,54
		C210.9,240.5,234.1,216.6,263.2,199.8z"/>
	<path class="st21" d="M156.2,510.8c-12.8,23.3-22.8,50-28.2,81.1c30.5-4.8,57.3-14.9,81.2-28.2
		C189.2,549.1,171.3,531.3,156.2,510.8z"/>
	<path class="st22" d="M194.8,456.8c-14.2,16-27.5,33.8-38.6,54.1c15.1,20.5,33,38.3,53,52.9c19.9-11.1,37.8-24.4,54-38.7
		C235.5,509.1,211.6,485.9,194.8,456.8z"/>
	<path class="st23" d="M309.9,477.4L309.9,477.4c-30.4-12.6-54.7-36.9-67.3-67.3l0,0c-16,14.1-32.4,29.4-47.7,46.7
		c16.8,29.1,40.6,52.3,68.4,68.4C280.5,509.9,295.9,493.4,309.9,477.4z"/>
	<path class="st24" d="M309.9,477.4l47.6-114.9l-114.9,47.6C255.2,440.5,279.5,464.8,309.9,477.4z"/>
	<path class="st25" d="M558.8,510.9c-14.7,20-32.4,37.9-52.9,53c23.8,13.2,50.6,23.3,81.1,28.1C581.6,560.8,571.6,534.2,558.8,510.9
		z"/>
	<path class="st26" d="M558.8,510.9c-11.1-20.3-24.4-38.1-38.6-54.1c-16,27.7-39.2,51.6-68.3,68.4c16.2,14.3,34.1,27.6,54,38.7
		C526.3,548.7,544.1,530.8,558.8,510.9z"/>
	<path class="st27" d="M472.4,410.1c-12.6,30.4-36.9,54.7-67.3,67.3c14,16,29.4,32.4,46.7,47.7c29.1-16.8,52.3-40.6,68.3-68.4
		C504.8,439.5,488.4,424.2,472.4,410.1z"/>
	<path class="st28" d="M472.4,410.1l-114.9-47.6l47.6,114.9C435.5,464.8,459.8,440.5,472.4,410.1z"/>
	<path class="st29" d="M558.8,214.2c13.2-23.8,23.3-50.6,28.1-81.1c-31.1,5.4-57.8,15.4-81.1,28.2
		C525.8,175.9,543.7,193.7,558.8,214.2z"/>
	<path class="st30" d="M357.5,362.5l114.9-47.6c-12.6-30.4-36.9-54.7-67.3-67.3L357.5,362.5z"/>
	<path class="st31" d="M405.1,247.5C405.1,247.5,405.1,247.6,405.1,247.5L405.1,247.5c30.4,12.6,54.7,36.9,67.3,67.3
		c16-14,32.4-29.4,47.7-46.7c-16.8-29.1-40.6-52.3-68.4-68.3C434.5,215.2,419.2,231.6,405.1,247.5z"/>
	<path class="st32" d="M520.1,268.2c14.3-16.2,27.6-34.1,38.7-54c-15.1-20.5-33-38.3-53-52.9c-20.3,11.1-38.1,24.4-54.1,38.6
		C479.5,215.9,503.3,239.1,520.1,268.2z"/>
	<path class="st33" d="M209.2,161.2c-23.3-12.8-50-22.8-81.1-28.2c4.8,30.5,14.9,57.3,28.2,81.2
		C170.9,194.2,188.7,176.3,209.2,161.2z"/>
</g>
<g id="text">
	<g>
		<text transform="matrix(1 0 0 1 216 117.1)" class="st34 st35">optimismi</text>
		<text transform="matrix(1 0 0 1 456 117.1)" class="st34 st35">rakkaus</text>
		<text transform="matrix(1 0 0 1 10 262.6)" class="st34 st35">aggressiivisuus</text>
		<text transform="matrix(1 0 0 1 600 262.6)" class="st34 st35">alistuvuus</text>
		<text transform="matrix(1 0 0 1 26.5537 470.6)" class="st34 st35">halveksunta</text>
		<text transform="matrix(1 0 0 1 600 470.6)" class="st34 st35">kunnioitus</text>
		<text transform="matrix(1 0 0 1 220 619.4)" class="st34 st35">sääli</text>
		<text transform="matrix(1 0 0 1 432 619.4)" class="st34 st35">paheksunta</text>
	</g>
	<g>
		<text transform="matrix(3.086208e-02 -0.9995 0.9995 3.086208e-02 146.5139 389.9554)" class="st34 st35">ärtymys</text>
		<text transform="matrix(-6.372885e-02 -0.998 0.998 -6.372885e-02 206.5626 373.9926)" class="st34 st35">viha</text>
		<text transform="matrix(7.784890e-02 -0.997 0.997 7.784890e-02 255.9746 379.0927)" class="st34 st35">raivo</text>
	</g>
	<g>
		<text transform="matrix(0.7398 -0.6729 0.6729 0.7398 262.1247 313.6561)" class="st34 st35">valppaus</text>
		<text transform="matrix(0.7398 -0.6729 0.6729 0.7398 232.095 270.4075)" class="st34 st35">odotus</text>
		<text transform="matrix(0.6966 -0.7175 0.7175 0.6966 181.8111 236.7709)" class="st34 st35">kiinnostus</text>
	</g>
	<g>
		<text transform="matrix(1 0 0 1 332 273)" class="st34 st35">hurmio</text>
		<text transform="matrix(1 0 0 1 346 214)" class="st34 st35">ilo</text>
		<text transform="matrix(1 0 0 1 329 149)" class="st34 st35">tyyneys</text>
	</g>
	<g>
		<text transform="matrix(0.6729 0.7398 -0.7398 0.6729 411.1354 274.1273)" class="st34 st35">ihailu</text>
		<text transform="matrix(0.6729 0.7398 -0.7398 0.6729 444.4831 227.0336)" class="st34 st35">luottamus</text>
		<text transform="matrix(0.6729 0.7398 -0.7398 0.6729 477.112 182.3497)" class="st34 st35">hyväksyvyys</text>
	</g>
	<g>
		<text transform="matrix(6.372885e-02 0.998 -0.998 6.372885e-02 453.3531 342.0822)" class="st34 st35">kauhu</text>
		<text transform="matrix(5.208200e-03 1 -1 5.208200e-03 508.8741 339.6221)" class="st34 st35">pelko</text>
		<text transform="matrix(5.208200e-03 1 -1 5.208200e-03 560.7491 317.6166)" class="st34 st35">levottomuus</text>
	</g>
	<g>
		<text transform="matrix(0.6966 -0.7175 0.7175 0.6966 415.392 458.6855)" class="st34 st35">ällistys</text>
		<text transform="matrix(0.7398 -0.6729 0.6729 0.7398 439.5182 502.1453)" class="st34 st35">hämmästys</text>
		<text transform="matrix(0.6966 -0.7175 0.7175 0.6966 489.2953 543.8525)" class="st34 st35">kiihtymys</text>
	</g>
	<g>
		<text transform="matrix(1 0 0 1 331 582)" class="st36"><tspan x="0" y="0" class="st34 st35">miette-</tspan><tspan x="0" y="16.8" class="st34 st35">liäisyys</tspan></text>
		<text transform="matrix(1 0 0 1 336 523)" class="st34 st35">suru</text>
		<text transform="matrix(1 0 0 1 334 466)" class="st37 st34 st35">murhe</text>
	</g>
	<g>
		<text transform="matrix(0.7175 0.6966 -0.6966 0.7175 179.9381 503.6019)" class="st34 st35">tylsyys</text>
		<text transform="matrix(0.7175 0.6966 -0.6966 0.7175 228.3082 466.0872)" class="st34 st35">inho</text>
		<text transform="matrix(0.7175 0.6966 -0.6966 0.7175 268.8922 408.2237)" class="st36"><tspan x="0" y="0" class="st34 st35">vasten-</tspan><tspan x="0" y="16.8" class="st34 st35">mielisyys</tspan></text>
	</g>
</g>
</svg>
